<?xml version="1.0" standalone="no"?>
<!DOCTYPE svg PUBLIC "-//W3C//DTD SVG 20010904//EN"
 "http://www.w3.org/TR/2001/REC-SVG-20010904/DTD/svg10.dtd">
<svg version="1.0" xmlns="http://www.w3.org/2000/svg"
 width="512.000000pt" height="512.000000pt" viewBox="0 0 512.000000 512.000000"
 preserveAspectRatio="xMidYMid meet">

<g transform="translate(0.000000,512.000000) scale(0.100000,-0.100000)"
fill="#000000" stroke="none">
<path d="M3952 4269 c-299 -32 -582 -242 -695 -514 -54 -131 -61 -171 -62
-335 0 -175 16 -252 80 -382 89 -179 216 -308 388 -392 236 -116 476 -124 716
-24 138 58 293 182 374 299 98 144 149 308 151 484 2 221 -65 409 -204 570
-132 154 -343 270 -525 289 -119 13 -141 13 -223 5z m203 -284 l25 -24 0 -535
c0 -309 -4 -545 -9 -559 -20 -52 -134 -57 -161 -7 -6 12 -10 189 -10 467 l0
448 -27 -38 c-41 -58 -85 -60 -114 -5 -22 40 0 74 112 177 119 110 141 119
184 76z"/>
</g>
</svg>
